<?xml version="1.0" encoding="UTF-8"?>
<svg id="ICONS_ACTIVE" data-name="ICONS ACTIVE" xmlns="http://www.w3.org/2000/svg" viewBox="0 0 512 512">
  <defs>
    <style>
      .cls-1 {
        fill: #fff;
      }

      .cls-2 {
        fill: #323232;
      }
    </style>
  </defs>
  <path id="Rectangle_535" data-name="Rectangle 535" class="cls-2" d="M256,0h0c141.38,0,256,114.62,256,256h0c0,141.38-114.62,256-256,256h0C114.62,512,0,397.38,0,256H0C0,114.62,114.62,0,256,0Z"/>
  <g>
    <path id="Path_35" data-name="Path 35" class="cls-1" d="M315.13,116.09h-118.28c-44.61,0-80.77,36.16-80.77,80.77h0v118.28c0,44.6,36.14,80.76,80.74,80.77h118.32c44.6,.01,80.77-36.13,80.78-80.73v-118.32c0-44.61-36.16-80.77-80.77-80.77,0,0,0,0,0,0m55.01,201.14c0,29.61-24,53.61-53.61,53.61h-121.06c-29.61,0-53.61-24-53.62-53.61v-121.05c0-29.61,24.01-53.61,53.62-53.6h121.05c29.6,0,53.61,23.99,53.61,53.59h0s.02,121.06,.02,121.06Z"/>
    <path id="Path_36" data-name="Path 36" class="cls-1" d="M255.98,184.08c-40.1,0-72.6,32.51-72.61,72.6,0,40.1,32.51,72.6,72.6,72.6,40.1,0,72.61-32.51,72.61-72.6h0c0-40.1-32.49-72.6-72.58-72.6h-.02m0,119.66c-26,0-47.07-21.07-47.07-47.07s21.07-47.07,47.07-47.07c26,0,47.07,21.07,47.07,47.07s-21.07,47.07-47.07,47.07h0"/>
    <path id="Path_37" data-name="Path 37" class="cls-1" d="M331.04,164.41c-9.35,0-16.93,7.56-16.94,16.9,0,9.35,7.56,16.93,16.9,16.94,9.35,0,16.93-7.56,16.94-16.9v-.02c0-9.34-7.57-16.91-16.9-16.92"/>
  </g>
</svg>