<?xml version="1.0" encoding="UTF-8"?>
<svg xmlns="http://www.w3.org/2000/svg" viewBox="0 0 512 512">
  <defs>
    <style>
      .cls-1 {
        fill: #fff;
      }
    </style>
  </defs>
  <g id="Background">
    <path id="Rectangle_535" data-name="Rectangle 535" d="M256,0h0c141.38,0,256,114.62,256,256h0c0,141.38-114.62,256-256,256h0C114.62,512,0,397.38,0,256H0C0,114.62,114.62,0,256,0Z"/>
  </g>
  <g id="Icons">
    <rect id="Rectangle_69" data-name="Rectangle 69" class="cls-1" x="134.16" y="184.57" width="52.38" height="169.23"/>
    <path id="Path_40" data-name="Path 40" class="cls-1" d="M160.09,162.41c17.25,.16,31.36-13.7,31.51-30.95,.16-17.25-13.7-31.36-30.95-31.51-17.25-.16-31.36,13.7-31.51,30.95,0,.09,0,.19,0,.28-.07,17.17,13.79,31.16,30.96,31.23,0,0,0,0,0,0"/>
    <path id="Path_41" data-name="Path 41" class="cls-1" d="M270.28,264.97c0-23.79,10.95-37.97,31.92-37.97,19.25,0,28.51,13.6,28.51,37.97v88.85h52.14v-107.16c0-45.31-25.69-67.24-61.57-67.24-20.73-.29-40.1,10.33-51,27.96v-22.8h-50.26v169.24h50.25v-88.84Z"/>
  </g>
</svg>