<svg viewBox="0 0 216 20" fill="none" xmlns="http://www.w3.org/2000/svg"><path d="M34.6 1.7c1 1 1.5 2.2 1.5 3.7V20h-7.4V5.1h-7V20h-7.4V5.1h-7V20H0V.2h31c1.4 0 2.6.5 3.6 1.5zm12.3 12V20h-7.4V5.4c0-1.4.5-2.7 1.5-3.7S43.2.2 44.7.2H63c1.4 0 2.6.5 3.6 1.5s1.5 2.1 1.5 3.5V20h-7.3v-6.3H46.9zm4.4-4.2h9.4V5.1H46.9v4.4h4.4zM92.7 15V9.9h7.5v5.5c0 .9-.5 1.9-1.5 3-1 1-2.3 1.6-3.7 1.6H76.7c-1.4 0-2.6-.5-3.7-1.6-1-1-1.5-2.3-1.5-3.8V5.4c0-1.4.5-2.7 1.5-3.7S75.2.1 76.7.1h23.5V5H79v10h13.7zm50.5.1V20h-23.5c-1.5 0-2.7-.5-3.7-1.5s-1.5-2.2-1.5-3.7V5.4c0-1.4.5-2.7 1.5-3.7s2.2-1.5 3.7-1.5h23.5v4.9h-21.3v10h21.3z" fill="#fff"/><path d="M153.9 15.1V20h-7.4V5.4c0-1.4.5-2.7 1.5-3.7s2.2-1.5 3.7-1.5h23.5v4.9h-21.3v10zm4.5-7.3h15.5v3.8h-15.5V7.8zm40.1 1.6l10 10.6h-9.6l-5.8-6.4-5.8 6.4h-9.5l10-10.6-9.6-9.2h9.1l5.8 5.8 5.8-5.8h9.2l-9.6 9.2z" fill="#E30613"/><path fill-rule="evenodd" clip-rule="evenodd" d="M211.1 2.7c0-1.3 1-2.2 2.2-2.2 1.2 0 2.2.9 2.2 2.2 0 1.3-.9 2.2-2.2 2.2-1.2 0-2.2-.9-2.2-2.2zm2.2 2.7c1.5 0 2.7-1.1 2.7-2.7 0-1.5-1.2-2.6-2.7-2.6-1.5 0-2.7 1.1-2.7 2.6s1.3 2.7 2.7 2.7zm-.5-2.5h.5l.8 1.3h.5l-.9-1.3c.4-.1.8-.3.8-.8 0-.6-.4-.9-1.1-.9h-1.2v3.1h.5V1.6h.6c.3 0 .7.1.7.5 0 .5-.4.5-.7.5h-.6v.3h.1z" fill="#fff"/><path d="M111 5.7c0 .7-.6 1.3-1.3 1.3h-4.4c-.7 0-1.3-.6-1.3-1.3V1.3c0-.7.6-1.3 1.3-1.3h4.4c.7 0 1.3.6 1.3 1.3v4.4zm0 13c0 .7-.6 1.3-1.3 1.3h-4.4c-.7 0-1.3-.6-1.3-1.3v-4.4c0-.7.6-1.3 1.3-1.3h4.4c.7 0 1.3.6 1.3 1.3v4.4z" fill="#fff"/></svg>