<?xml version="1.0" encoding="utf-8"?>
<!-- Generator: Adobe Illustrator 26.5.0, SVG Export Plug-In . SVG Version: 6.00 Build 0)  -->
<svg version="1.1" id="Layer_1" xmlns="http://www.w3.org/2000/svg" xmlns:xlink="http://www.w3.org/1999/xlink" x="0px" y="0px"
	 viewBox="0 0 21 19.9" style="enable-background:new 0 0 21 19.9;" xml:space="preserve">
<style type="text/css">
	.st0{fill:#FFFFFF;}
</style>
<g id="CART" transform="translate(97.766 0.165)">
	<g>
		<g id="Group_12">
			<path id="Path_18" class="st0" d="M-80.5,14.1h-10.9L-93.1,5c0,0,0,0,0,0l-0.5-2.5h-2.7c-0.6,0-1-0.5-1-1s0.5-1,1-1c0,0,0,0,0,0
				h4.4l0.6,3.4l13.9,0L-80.5,14.1z M-89.7,12h7.6l1.9-6.2l-10.7,0L-89.7,12z"/>
			<path id="Path_19" class="st0" d="M-87.5,17.2c0,1.1-0.9,1.9-1.9,1.9s-1.9-0.9-1.9-1.9c0-1.1,0.9-1.9,1.9-1.9c0,0,0,0,0,0
				C-88.4,15.3-87.5,16.2-87.5,17.2"/>
			<path id="Path_20" class="st0" d="M-81,17.2c0,1.1-0.9,1.9-1.9,1.9s-1.9-0.9-1.9-1.9s0.9-1.9,1.9-1.9h0
				C-81.9,15.3-81,16.2-81,17.2"/>
		</g>
	</g>
</g>
</svg>
