<?xml version="1.0" encoding="UTF-8"?>
<svg id="ICONS_ACTIVE" data-name="ICONS ACTIVE" xmlns="http://www.w3.org/2000/svg" viewBox="0 0 512 512">
  <defs>
    <style>
      .cls-1 {
        fill: #fff;
      }

      .cls-2 {
        fill: #323232;
      }
    </style>
  </defs>
  <path id="Rectangle_535" data-name="Rectangle 535" class="cls-2" d="M256,0h0c141.38,0,256,114.62,256,256h0c0,141.38-114.62,256-256,256h0C114.62,512,0,397.38,0,256H0C0,114.62,114.62,0,256,0Z"/>
  <path id="Path_98" data-name="Path 98" class="cls-1" d="M377.62,228.86c-2.32,.23-4.65,.34-6.99,.36-25.61,0-49.49-12.91-63.51-34.33v116.89c0,47.72-38.68,86.4-86.4,86.4s-86.4-38.68-86.4-86.4,38.68-86.4,86.4-86.4h0c1.8,0,3.57,.17,5.34,.27v42.57c-24.11-2.97-46.07,14.17-49.04,38.28-2.97,24.11,14.17,46.07,38.28,49.04,1.8,.22,3.61,.33,5.42,.33,24.59,.39,44.98-18.96,45.87-43.54l.43-198.52h40.75c3.85,36.52,33.3,65.04,69.92,67.72v47.31"/>
</svg>