<?xml version="1.0" encoding="UTF-8"?><svg id="Layer_1" xmlns="http://www.w3.org/2000/svg" viewBox="0 0 18.89 19.65"><defs><style>.cls-1{fill:#fff;}</style></defs><path class="cls-1" d="M11.92,10.48c2-1.05,3.37-3.27,3.06-5.69C14.66,2.36,12.66,.36,10.13,.04,6.86-.38,3.91,2.26,3.91,5.53c0,2.21,1.26,4.11,3.06,4.95C3.28,11.43,.54,14.59,.01,18.38c-.11,.63,.42,1.16,1.05,1.16h0c.53,0,.95-.42,1.05-.95,.53-3.48,3.69-6.32,7.38-6.32s6.85,2.85,7.27,6.43c.11,.53,.53,.95,1.05,.95h0c.63,0,1.16-.53,1.05-1.16-.53-3.9-3.27-6.96-6.96-8.01ZM6.02,5.53c0-1.9,1.58-3.48,3.48-3.48s3.48,1.58,3.48,3.48-1.58,3.48-3.48,3.48-3.48-1.58-3.48-3.48Z"/></svg>